<svg xmlns="http://www.w3.org/2000/svg" version="1.1" xmlns:xlink="http://www.w3.org/1999/xlink" xmlns:svgjs="http://svgjs.dev/svgjs" width="1000" height="535" viewBox="0 0 1000 535"><g transform="matrix(1,0,0,1,-0.6060606060606233,0.16061812124473818)"><svg viewBox="0 0 396 212" data-background-color="#282634" preserveAspectRatio="xMidYMid meet" height="535" width="1000" xmlns="http://www.w3.org/2000/svg" xmlns:xlink="http://www.w3.org/1999/xlink"><g id="tight-bounds" transform="matrix(1,0,0,1,0.2400000000000091,-0.0636468069231455)"><svg viewBox="0 0 395.52 212.1272936138463" height="212.1272936138463" width="395.52"><g><svg viewBox="0 0 397.4976 213.1879300819155" height="212.1272936138463" width="395.52"><g><rect width="397.4976" height="4.708038039058507" x="0" y="118.98034121081858" fill="#ff4057" opacity="1" stroke-width="0" stroke="transparent" fill-opacity="1" class="rect-in-0" data-fill-palette-color="primary" rx="1%" id="in-0" data-palette-color="#ff4057"></rect></g><g transform="matrix(1,0,0,1,0.9887999999999693,136.01308615840722)"><svg viewBox="0 0 395.52000000000004 77.17484392350828" height="77.17484392350828" width="395.52000000000004"><g><svg viewBox="0 0 395.52000000000004 77.17484392350828" height="77.17484392350828" width="395.52000000000004"><g><svg viewBox="0 0 395.52000000000004 52.20652208835342" height="52.20652208835342" width="395.52000000000004"><g transform="matrix(1,0,0,1,0,0)"><svg width="395.52000000000004" viewBox="2.2 -35.45 283.40000000000003 36.11" height="52.20652208835342" data-palette-color="#ff4057"><g class="undefined-text-0" data-fill-palette-color="primary" id="text-0"><path d="M4.88-0.9L3.32-0.66Q3-0.66 2.93-1.17L2.93-1.17Q2.66-3.47 2.51-4.74 2.37-6.01 2.31-6.64 2.25-7.28 2.23-7.46 2.22-7.64 2.22-7.71L2.22-7.71Q2.22-7.98 2.47-8.3 2.71-8.62 3.05-8.62L3.05-8.62Q3.3-8.62 3.58-8.33 3.86-8.03 4.11-7.64 4.37-7.25 4.55-6.86 4.74-6.47 4.79-6.3L4.79-6.3Q5.42-4.96 6.16-4.04 6.91-3.13 7.86-2.58 8.81-2.03 10.01-1.78 11.21-1.54 12.74-1.54L12.74-1.54Q15.36-1.54 16.81-2.78 18.26-4.03 18.26-6.79L18.26-6.79Q18.26-8.37 17.57-9.67 16.87-10.96 15.75-12.07 14.62-13.18 13.18-14.18 11.74-15.19 10.23-16.21 8.72-17.24 7.28-18.35 5.83-19.46 4.71-20.8 3.59-22.14 2.89-23.78 2.2-25.42 2.2-27.47L2.2-27.47Q2.2-28.71 2.65-29.79 3.1-30.86 3.86-31.74 4.61-32.62 5.63-33.31 6.64-34.01 7.79-34.48 8.94-34.96 10.12-35.21 11.3-35.45 12.43-35.45L12.43-35.45Q13.33-35.45 14.25-35.29 15.16-35.13 16.05-34.91 16.94-34.69 17.85-34.44 18.75-34.18 19.63-33.96L19.63-33.96 21.24-34.11Q21.46-34.11 21.52-33.92 21.58-33.74 21.61-33.59L21.61-33.59 22.31-27.86Q22.31-27.73 22-27.69 21.68-27.64 21.51-27.64L21.51-27.64Q21.36-27.64 21.07-27.67 20.78-27.71 20.73-27.76L20.73-27.76Q20.65-27.83 20.54-28.06 20.43-28.3 20.31-28.58 20.19-28.86 20.06-29.15 19.92-29.44 19.78-29.66L19.78-29.66Q18.6-31.47 16.77-32.36 14.94-33.25 12.74-33.25L12.74-33.25Q11.79-33.25 10.96-33.03 10.13-32.81 9.52-32.34 8.91-31.86 8.56-31.13 8.2-30.4 8.2-29.37L8.2-29.37Q8.2-27.88 8.9-26.67 9.59-25.46 10.73-24.4 11.87-23.34 13.32-22.34 14.77-21.34 16.27-20.3 17.77-19.26 19.23-18.09 20.68-16.92 21.81-15.5 22.95-14.09 23.65-12.35 24.34-10.62 24.34-8.45L24.34-8.45Q24.34-7.01 23.84-5.76 23.34-4.52 22.49-3.5 21.63-2.49 20.48-1.71 19.34-0.93 18.03-0.4 16.72 0.12 15.34 0.39 13.96 0.66 12.65 0.66L12.65 0.66Q10.99 0.66 9.75 0.42 8.52 0.17 7.63-0.13 6.74-0.44 6.13-0.68 5.52-0.93 5.1-0.93L5.1-0.93Q4.96-0.93 4.88-0.9L4.88-0.9ZM31.69-30.15L31.69-30.15Q31.69-30.86 31.36-31.41 31.03-31.96 30.47-32.32 29.9-32.69 29.17-32.89 28.44-33.08 27.61-33.08L27.61-33.08Q27.41-33.08 27.41-33.28L27.41-33.28 27.41-34.23Q27.41-34.42 27.59-34.42L27.59-34.42 43.02-34.42Q43.14-34.42 43.17-34.35 43.21-34.28 43.21-34.23L43.21-34.23 43.21-33.28Q43.21-33.23 43.17-33.15 43.14-33.08 43.02-33.08L43.02-33.08Q42.28-33.08 41.51-32.98 40.74-32.89 40.1-32.54 39.45-32.2 39.05-31.56 38.64-30.91 38.64-29.81L38.64-29.81 38.64-12.7Q38.64-7.81 41.14-5.14 43.63-2.47 48.58-2.47L48.58-2.47Q50.63-2.47 52.51-3.04 54.39-3.61 55.83-4.81 57.27-6.01 58.13-7.86 58.98-9.72 58.98-12.28L58.98-12.28 58.98-27.44Q58.98-28.27 58.92-29.15 58.86-30.03 58.52-30.81 58.18-31.59 57.44-32.17 56.71-32.74 55.37-32.96L55.37-32.96Q54.76-33.06 54.36-33.07 53.95-33.08 53.83-33.08L53.83-33.08Q53.64-33.08 53.64-33.28L53.64-33.28 53.64-34.23Q53.64-34.42 53.83-34.42L53.83-34.42 66.57-34.42Q66.7-34.42 66.73-34.35 66.77-34.28 66.77-34.23L66.77-34.23 66.77-33.28Q66.77-33.23 66.72-33.15 66.67-33.08 66.57-33.08L66.57-33.08Q65.7-33.08 65.02-32.95 64.35-32.81 64.01-32.67L64.01-32.67Q63.6-32.5 63.25-32.14 62.91-31.79 62.68-31.38 62.45-30.98 62.33-30.55 62.2-30.13 62.2-29.81L62.2-29.81 62.2-14.18Q62.2-10.74 61.3-8 60.4-5.25 58.58-3.33 56.76-1.42 54-0.38 51.24 0.66 47.56 0.66L47.56 0.66Q45.8 0.66 43.93 0.39 42.06 0.12 40.29-0.46 38.52-1.05 36.96-1.98 35.4-2.91 34.23-4.2 33.05-5.49 32.37-7.18 31.69-8.86 31.69-10.99L31.69-10.99 31.69-30.15ZM69.01 0L69.01 0Q68.96 0 68.89-0.06 68.82-0.12 68.82-0.2L68.82-0.2 68.82-1.27Q68.82-1.46 69.01-1.46L69.01-1.46Q69.28-1.46 69.62-1.46 69.97-1.46 70.3-1.49 70.62-1.51 70.89-1.54 71.16-1.56 71.31-1.64L71.31-1.64Q71.92-1.93 72.31-2.42 72.7-2.91 72.91-3.54 73.12-4.17 73.19-4.93 73.26-5.69 73.26-6.54L73.26-6.54 73.26-30.93Q73.26-31.59 72.74-31.99 72.21-32.4 71.52-32.6 70.82-32.81 70.1-32.89 69.38-32.96 69.01-32.96L69.01-32.96Q68.89-32.96 68.85-33.03 68.82-33.11 68.82-33.15L68.82-33.15 68.82-34.23Q68.82-34.28 68.85-34.35 68.89-34.42 69.01-34.42L69.01-34.42 80.07-34.42 101.12-11.13Q101.24-11.01 101.29-10.95 101.34-10.89 101.41-10.89L101.41-10.89Q101.51-10.89 101.53-10.96 101.56-11.04 101.56-11.11L101.56-11.11 101.56-25.61Q101.56-28.03 101.39-29.48 101.22-30.93 100.75-31.7 100.29-32.47 99.51-32.71 98.73-32.96 97.5-32.96L97.5-32.96 96.26-32.96Q96.14-32.96 96.1-33.03 96.06-33.11 96.06-33.15L96.06-33.15 96.06-34.23Q96.06-34.28 96.1-34.35 96.14-34.42 96.26-34.42L96.26-34.42 109.69-34.42Q109.83-34.42 109.86-34.35 109.88-34.28 109.88-34.23L109.88-34.23 109.88-33.15Q109.88-33.11 109.85-33.03 109.81-32.96 109.69-32.96L109.69-32.96Q109.2-32.96 108.43-32.76 107.66-32.57 106.93-32.2 106.2-31.84 105.67-31.3 105.15-30.76 105.15-30.08L105.15-30.08 105.15-1.2Q105.15-0.78 104.95-0.5 104.76-0.22 104.45-0.05 104.15 0.12 103.79 0.21 103.44 0.29 103.14 0.29L103.14 0.29Q102.66 0.29 102.01 0.09 101.36-0.12 100.73-0.83L100.73-0.83 77.68-26.39Q77.51-26.56 77.44-26.6 77.36-26.64 77.24-26.64L77.24-26.64Q77.12-26.64 77.12-26.39L77.12-26.39 77.12-4.59Q77.12-3.91 77.45-3.41 77.78-2.91 78.29-2.55 78.8-2.2 79.43-1.99 80.05-1.78 80.65-1.66 81.25-1.54 81.72-1.5 82.2-1.46 82.44-1.46L82.44-1.46Q82.56-1.46 82.61-1.37L82.61-1.37Q82.64-1.32 82.64-1.27L82.64-1.27 82.64-0.2Q82.64-0.15 82.6-0.07 82.56 0 82.44 0L82.44 0 69.01 0ZM112.74 0L112.03 0Q111.88 0 111.86-0.09 111.83-0.17 111.83-0.2L111.83-0.2 111.83-1.25Q111.83-1.27 111.86-1.35 111.88-1.44 112.03-1.44L112.03-1.44 112.57-1.44Q113.08-1.44 113.84-1.5 114.59-1.56 115.3-1.84 116.01-2.12 116.51-2.7 117.01-3.27 117.01-4.27L117.01-4.27 117.01-30.3Q117.01-31.05 116.68-31.58 116.35-32.1 115.85-32.43 115.35-32.76 114.74-32.91 114.13-33.06 113.59-33.06L113.59-33.06 112.03-33.06Q111.88-33.06 111.86-33.14 111.83-33.23 111.83-33.25L111.83-33.25 111.83-34.3Q111.83-34.33 111.86-34.41 111.88-34.5 112.03-34.5L112.03-34.5 112.57-34.5 122.6-34.67Q124.02-34.69 125.66-34.7 127.31-34.72 128.73-34.72L128.73-34.72Q130.27-34.72 131.49-34.68 132.71-34.64 133.83-34.53 134.95-34.42 136.1-34.25 137.25-34.08 138.66-33.79L138.66-33.79Q141.37-33.23 143.71-31.71 146.04-30.2 147.73-28.05 149.43-25.9 150.4-23.29 151.36-20.68 151.36-17.94L151.36-17.94Q151.36-15.31 150.63-12.95 149.89-10.6 148.59-8.61 147.28-6.62 145.49-5.02 143.69-3.42 141.55-2.31 139.4-1.2 136.98-0.6 134.56 0 132.02 0L132.02 0 112.74 0ZM123.97-3.91L123.97-3.78Q123.97-3.08 124.42-2.69 124.87-2.29 125.62-2.11 126.36-1.93 127.36-1.9 128.36-1.88 129.46-1.88L129.46-1.88Q136.71-1.88 140.34-5.88 143.96-9.89 143.96-17.55L143.96-17.55Q143.96-20.92 143.14-23.73 142.33-26.54 140.65-28.56 138.98-30.59 136.45-31.71 133.93-32.84 130.49-32.84L130.49-32.84 124.58-32.84Q124.21-32.84 124.09-32.68 123.97-32.52 123.97-32.18L123.97-32.18 123.97-3.91ZM153.68-0.2L153.68-1.15Q153.68-1.34 153.87-1.34L153.87-1.34Q154.34-1.37 154.96-1.48 155.58-1.59 156.23-1.94 156.87-2.29 157.49-2.99 158.1-3.69 158.51-4.91L158.51-4.91 168.32-33.37Q168.32-33.35 168.34-33.4 168.35-33.45 168.35-33.5L168.35-33.5Q168.35-33.67 168.22-33.92 168.08-34.18 168.08-34.3L168.08-34.3Q168.08-34.42 168.18-34.42L168.18-34.42 175.26-34.42Q175.31-34.4 175.39-34.38 175.48-34.35 175.53-34.23L175.53-34.23 185.85-5.25Q186.1-4.57 186.32-4.08 186.54-3.59 186.84-3.21 187.15-2.83 187.61-2.53 188.08-2.22 188.81-1.9L188.81-1.9Q189.15-1.73 189.74-1.54 190.32-1.34 190.86-1.34L190.86-1.34Q190.98-1.34 191.02-1.27 191.05-1.2 191.05-1.12L191.05-1.12 191.05-0.2Q191.05-0.15 191.02-0.07 190.98 0 190.86 0L190.86 0 173.72 0Q173.6 0 173.56-0.07 173.53-0.15 173.53-0.2L173.53-0.2 173.53-1.15Q173.53-1.2 173.56-1.27 173.6-1.34 173.72-1.34L173.72-1.34Q173.82-1.34 173.92-1.35 174.01-1.37 174.06-1.37L174.06-1.37Q174.33-1.39 174.83-1.42 175.33-1.44 175.92-1.5 176.5-1.56 177.1-1.7 177.7-1.83 178.19-2.09 178.68-2.34 178.99-2.76 179.31-3.17 179.31-3.78L179.31-3.78Q179.31-3.93 179.26-4.13L179.26-4.13 176.06-12.94Q176.04-12.99 175.98-13.16 175.92-13.33 175.78-13.51 175.65-13.7 175.44-13.84 175.23-13.99 174.94-13.99L174.94-13.99 166.13-13.99Q165.81-13.99 165.59-13.84 165.37-13.7 165.22-13.53 165.08-13.35 164.99-13.18 164.91-13.01 164.91-12.99L164.91-12.99Q164.13-10.69 163.59-9.12 163.05-7.54 162.7-6.52 162.34-5.49 162.15-4.93 161.95-4.37 161.87-4.11 161.78-3.86 161.77-3.8 161.76-3.74 161.76-3.74L161.76-3.74Q161.76-3.66 161.78-3.58 161.81-3.49 161.83-3.42L161.83-3.42Q162.03-2.81 162.55-2.4 163.08-2 163.76-1.77 164.44-1.54 165.16-1.44 165.88-1.34 166.45-1.34L166.45-1.34 167.08-1.34Q167.2-1.34 167.24-1.27 167.28-1.2 167.28-1.15L167.28-1.15 167.28-0.2Q167.28-0.15 167.24-0.07 167.2 0 167.08 0L167.08 0 153.87 0Q153.68 0 153.68-0.2L153.68-0.2ZM169.55-26.39L166.47-17.5Q166.42-17.38 166.4-17.26 166.37-17.14 166.37-17.02L166.37-17.02Q166.37-16.87 166.45-16.78 166.52-16.7 166.74-16.7L166.74-16.7 174.06-16.7Q174.33-16.7 174.42-16.81 174.5-16.92 174.5-17.07L174.5-17.07Q174.5-17.19 174.48-17.29 174.45-17.38 174.4-17.5L174.4-17.5 171.16-26.42Q171.03-26.76 170.79-26.92 170.55-27.08 170.35-27.08L170.35-27.08Q170.16-27.08 169.91-26.89 169.67-26.71 169.55-26.39L169.55-26.39ZM192.25-0.98L192.25-1.27Q192.25-1.29 192.27-1.38 192.3-1.46 192.44-1.46L192.44-1.46Q192.59-1.46 192.91-1.51 193.22-1.56 193.57-1.61 193.91-1.66 194.2-1.72 194.49-1.78 194.62-1.81L194.62-1.81Q196.01-2.12 196.56-2.84 197.11-3.56 197.11-4.64L197.11-4.64 197.11-29.44Q197.11-30.66 196.59-31.37 196.08-32.08 195.41-32.43 194.74-32.79 194.12-32.87 193.49-32.96 193.27-32.96L193.27-32.96 192.35-32.96Q192.22-32.96 192.19-33.03 192.15-33.11 192.15-33.15L192.15-33.15 192.15-34.23Q192.15-34.28 192.18-34.34 192.2-34.4 192.35-34.42L192.35-34.42Q192.37-34.42 192.46-34.42 192.54-34.42 192.81-34.44 193.08-34.45 193.59-34.46 194.1-34.47 195.03-34.5L195.03-34.5Q196.37-34.52 197.9-34.57 199.43-34.62 200.99-34.67 202.55-34.72 204.08-34.75 205.6-34.79 206.95-34.79L206.95-34.79 209.41-34.79Q211.34-34.79 213.34-34.13 215.34-33.47 216.97-32.19 218.59-30.91 219.63-29 220.67-27.1 220.67-24.61L220.67-24.61Q220.67-23 220.23-21.74 219.79-20.48 219.02-19.52 218.25-18.55 217.19-17.82 216.13-17.09 214.88-16.53L214.88-16.53 222.28-4.81Q223.23-3.3 224.5-2.06 225.77-0.83 227.45-0.34L227.45-0.34Q227.65-0.29 227.69-0.21 227.72-0.12 227.72 0L227.72 0Q227.72 0.37 227.53 0.49 227.33 0.61 226.92 0.61L226.92 0.61Q225.89 0.61 224.58 0.48 223.28 0.34 221.96 0.04 220.64-0.27 219.46-0.76 218.27-1.25 217.47-1.98L217.47-1.98Q216.69-2.66 215.88-3.71 215.08-4.76 214.26-5.97 213.44-7.18 212.65-8.48 211.85-9.79 211.11-11.04 210.36-12.28 209.68-13.35 209-14.43 208.43-15.19L208.43-15.19 204.63-15.45Q204.6-15.45 204.43-15.45 204.26-15.45 204.19-15.41L204.19-15.41Q204.11-15.36 204.09-15.31 204.06-15.26 204.06-15.11L204.06-15.11 204.06-4.71Q204.06-4.05 204.24-3.56 204.41-3.08 204.81-2.72 205.21-2.37 205.86-2.15 206.51-1.93 207.43-1.81L207.43-1.81Q207.58-1.78 207.86-1.73 208.14-1.68 208.47-1.62 208.8-1.56 209.12-1.51 209.44-1.46 209.66-1.46L209.66-1.46Q209.8-1.46 209.83-1.39 209.85-1.32 209.85-1.27L209.85-1.27 209.85-0.2Q209.85-0.15 209.81-0.07 209.78 0 209.66 0L209.66 0 192.44 0Q192.32 0 192.28-0.34 192.25-0.68 192.25-0.98L192.25-0.98ZM204.06-18.63L204.11-17.9Q204.14-17.7 204.22-17.54 204.31-17.38 204.58-17.36L204.58-17.36Q204.8-17.33 205.24-17.27 205.68-17.21 206.46-17.21L206.46-17.21Q208.61-17.21 210-17.87 211.39-18.53 212.19-19.64 213-20.75 213.31-22.19 213.61-23.63 213.61-25.2L213.61-25.2Q213.61-26.83 213.1-28.3 212.59-29.76 211.67-30.83 210.75-31.91 209.47-32.54 208.19-33.18 206.65-33.18L206.65-33.18Q206.31-33.18 206.12-33.17 205.92-33.15 205.74-33.14 205.55-33.13 205.32-33.12 205.09-33.11 204.68-33.08L204.68-33.08Q204.53-33.08 204.3-33.02 204.06-32.96 204.06-32.69L204.06-32.69 204.06-18.63Z" fill="#ff4057" data-fill-palette-color="primary"></path><path d="M232.87-30.15L232.87-30.15Q232.87-30.86 232.54-31.41 232.21-31.96 231.65-32.32 231.09-32.69 230.36-32.89 229.62-33.08 228.79-33.08L228.79-33.08Q228.6-33.08 228.6-33.28L228.6-33.28 228.6-34.23Q228.6-34.42 228.77-34.42L228.77-34.42 244.2-34.42Q244.32-34.42 244.36-34.35 244.39-34.28 244.39-34.23L244.39-34.23 244.39-33.28Q244.39-33.23 244.36-33.15 244.32-33.08 244.2-33.08L244.2-33.08Q243.47-33.08 242.7-32.98 241.93-32.89 241.28-32.54 240.64-32.2 240.23-31.56 239.83-30.91 239.83-29.81L239.83-29.81 239.83-12.7Q239.83-7.81 242.32-5.14 244.81-2.47 249.77-2.47L249.77-2.47Q251.82-2.47 253.7-3.04 255.58-3.61 257.02-4.81 258.46-6.01 259.31-7.86 260.17-9.72 260.17-12.28L260.17-12.28 260.17-27.44Q260.17-28.27 260.11-29.15 260.04-30.03 259.7-30.81 259.36-31.59 258.63-32.17 257.9-32.74 256.55-32.96L256.55-32.96Q255.94-33.06 255.54-33.07 255.14-33.08 255.01-33.08L255.01-33.08Q254.82-33.08 254.82-33.28L254.82-33.28 254.82-34.23Q254.82-34.42 255.01-34.42L255.01-34.42 267.76-34.42Q267.88-34.42 267.92-34.35 267.95-34.28 267.95-34.23L267.95-34.23 267.95-33.28Q267.95-33.23 267.91-33.15 267.86-33.08 267.76-33.08L267.76-33.08Q266.88-33.08 266.21-32.95 265.54-32.81 265.2-32.67L265.2-32.67Q264.78-32.5 264.44-32.14 264.1-31.79 263.87-31.38 263.63-30.98 263.51-30.55 263.39-30.13 263.39-29.81L263.39-29.81 263.39-14.18Q263.39-10.74 262.49-8 261.58-5.25 259.76-3.33 257.94-1.42 255.19-0.38 252.43 0.66 248.74 0.66L248.74 0.66Q246.98 0.66 245.12 0.39 243.25 0.12 241.48-0.46 239.71-1.05 238.14-1.98 236.58-2.91 235.41-4.2 234.24-5.49 233.55-7.18 232.87-8.86 232.87-10.99L232.87-10.99 232.87-30.15ZM281.65-4.64L281.65-4.64Q281.65-3.81 281.9-3.25 282.16-2.69 282.64-2.34 283.11-2 283.81-1.86 284.5-1.71 285.36-1.71L285.36-1.71Q285.55-1.71 285.55-1.51L285.55-1.51 285.55-0.2Q285.55-0.12 285.53-0.06 285.51 0 285.36 0L285.36 0 270.93 0Q270.81 0 270.77-0.07 270.74-0.15 270.74-0.2L270.74-0.2 270.74-1.51Q270.74-1.56 270.77-1.64 270.81-1.71 270.93-1.71L270.93-1.71Q271.78-1.71 272.48-1.82 273.18-1.93 273.66-2.29 274.15-2.66 274.42-3.34 274.69-4.03 274.69-5.2L274.69-5.2 274.69-29.79Q274.69-30.62 274.43-31.18 274.18-31.74 273.7-32.08 273.23-32.42 272.53-32.57 271.83-32.71 270.98-32.71L270.98-32.71Q270.78-32.71 270.78-32.91L270.78-32.91 270.78-34.23Q270.78-34.42 270.98-34.42L270.98-34.42 285.41-34.42Q285.53-34.42 285.57-34.35 285.6-34.28 285.6-34.23L285.6-34.23 285.6-32.91Q285.6-32.86 285.57-32.79 285.53-32.71 285.41-32.71L285.41-32.71Q284.55-32.71 283.86-32.6 283.16-32.5 282.67-32.13 282.19-31.76 281.92-31.08 281.65-30.4 281.65-29.22L281.65-29.22 281.65-4.64Z" fill="#dcdcdc" data-fill-palette-color="secondary"></path></g></svg></g></svg></g><g transform="matrix(1,0,0,1,163.310208,64.53122899688354)"><svg viewBox="0 0 232.20979200000005 12.643614926624739" height="12.643614926624739" width="232.20979200000005"><g transform="matrix(1,0,0,1,0,0)"><svg width="232.20979200000005" viewBox="1.3 -34.45 858.51 46.75000000000001" height="12.643614926624739" data-palette-color="#dcdcdc"><path d="M5.4 0L1.3 0 12.1-31.4 16.85-31.4 27.4 0 23.3 0 20.65-8.05 8.15-8.05 5.4 0ZM14.4-26.65L9.15-11.1 19.65-11.1 14.4-26.65ZM54.05 0.6L54.05 0.6Q51.17 0.6 48.68-0.95 46.2-2.5 44.67-5.33 43.14-8.15 43.14-12L43.14-12Q43.14-15.95 44.67-18.75 46.2-21.55 48.68-23.03 51.17-24.5 54.05-24.5L54.05-24.5Q56.07-24.5 57.68-23.89 59.3-23.28 60.5-22.2 61.7-21.13 62.48-19.76 63.27-18.4 63.64-16.9L63.64-16.9 59.64-16.55Q59.02-18.63 57.56-19.84 56.09-21.05 53.99-21.05L53.99-21.05Q52.22-21.05 50.66-20.04 49.09-19.03 48.12-17.01 47.14-15 47.14-12L47.14-12Q47.14-9.22 48.03-7.19 48.92-5.15 50.47-4.03 52.02-2.9 53.99-2.9L53.99-2.9Q56.77-2.9 58.21-4.26 59.64-5.63 59.64-8.05L59.64-8.05 63.64-8.05Q63.64-5.55 62.47-3.6 61.3-1.65 59.13-0.53 56.97 0.6 54.05 0.6ZM89.64 0L86.24 0 85.74-5.25 85.74-15.5Q85.74-18.73 84.37-20.14 82.99-21.55 80.24-21.55L80.24-21.55Q78.69-21.55 77.43-21.1 76.17-20.65 75.43-19.71 74.69-18.78 74.69-17.3L74.69-17.3 70.34-17.3Q70.34-19.9 71.62-21.49 72.89-23.08 75.13-23.79 77.37-24.5 80.24-24.5L80.24-24.5Q82.99-24.5 85.12-23.58 87.24-22.65 88.44-20.64 89.64-18.63 89.64-15.4L89.64-15.4 89.64 0ZM78.09 0.6L78.09 0.6Q75.14 0.6 73.22-0.45 71.29-1.5 70.34-3.18 69.39-4.85 69.39-6.7L69.39-6.7Q69.39-9.13 70.61-10.65 71.82-12.18 73.92-12.89 76.02-13.6 78.64-13.6L78.64-13.6Q80.52-13.6 82.41-13.23 84.29-12.85 86.09-12.2L86.09-12.2 86.09-9.75Q84.59-10.35 82.7-10.7 80.82-11.05 79.24-11.05L79.24-11.05Q76.84-11.05 75.19-10.06 73.54-9.08 73.54-6.7L73.54-6.7Q73.54-4.95 74.8-3.7 76.07-2.45 78.84-2.45L78.84-2.45Q80.79-2.45 82.36-3.36 83.92-4.28 84.83-5.65 85.74-7.03 85.74-8.4L85.74-8.4 86.69-8.4Q86.69-6 85.66-3.95 84.62-1.9 82.69-0.65 80.77 0.6 78.09 0.6ZM106.32 0.6L106.32 0.6Q104.37 0.6 102.82-0.15 101.27-0.9 100.37-2.4 99.47-3.9 99.47-6.15L99.47-6.15 99.47-30.55 103.32-30.55 103.32-6.25Q103.32-2.55 106.77-2.55L106.77-2.55Q107.79-2.55 108.75-2.78 109.72-3 110.92-3.45L110.92-3.45 111.47-0.65Q110.19-0.1 108.93 0.25 107.67 0.6 106.32 0.6ZM110.87-21.2L95.62-21.2 95.62-23.9 110.87-23.9 110.87-21.2ZM121.66 0L117.76 0 117.76-34.1 121.66-34.1 121.66 0ZM140.41 0.6L140.41 0.6Q137.19 0.6 134.67-0.83 132.16-2.25 130.71-5.05 129.26-7.85 129.26-11.95L129.26-11.95Q129.26-16.07 130.71-18.86 132.16-21.65 134.67-23.08 137.19-24.5 140.41-24.5L140.41-24.5Q143.61-24.5 146.12-23.08 148.64-21.65 150.07-18.86 151.51-16.07 151.51-11.95L151.51-11.95Q151.51-7.85 150.07-5.05 148.64-2.25 146.12-0.83 143.61 0.6 140.41 0.6ZM140.31-2.8L140.31-2.8Q142.64-2.8 144.26-3.91 145.89-5.03 146.72-7.08 147.56-9.13 147.56-11.95L147.56-11.95Q147.56-16.23 145.78-18.69 144.01-21.15 140.51-21.15L140.51-21.15Q138.16-21.15 136.55-20.04 134.94-18.93 134.1-16.86 133.26-14.8 133.26-11.95L133.26-11.95Q133.26-7.73 135.05-5.26 136.84-2.8 140.31-2.8ZM167.53 12.3L167.53 12.3Q163.86 12.3 161.16 11.26 158.46 10.23 156.97 8.49 155.48 6.75 155.48 4.65L155.48 4.65Q155.48 1.88 157.52 0.41 159.56-1.05 162.78-1.05L162.78-1.05 164.93 0.3Q162.23 0.3 160.76 1.43 159.28 2.55 159.28 4.5L159.28 4.5Q159.28 6.45 161.38 7.8 163.48 9.15 167.53 9.15L167.53 9.15Q170.53 9.15 172.8 8.29 175.06 7.43 176.32 6.04 177.58 4.65 177.58 3.05L177.58 3.05Q177.58 1.93 176.76 1.11 175.93 0.3 174.23 0.3L174.23 0.3 164.93 0.3Q162.51 0.3 160.75-0.44 158.98-1.18 158.03-2.38 157.08-3.58 157.08-5L157.08-5Q157.08-6.5 157.93-7.55 158.78-8.6 160.15-9.15 161.51-9.7 163.08-9.7L163.08-9.7 163.83-8.25Q163.08-8.25 162.32-7.91 161.56-7.58 161.05-6.91 160.53-6.25 160.53-5.25L160.53-5.25Q160.53-4.1 161.48-3.33 162.43-2.55 164.93-2.55L164.93-2.55 174.23-2.55Q177.61-2.55 179.55-1.13 181.48 0.3 181.48 2.85L181.48 2.85Q181.48 5.2 179.81 7.36 178.13 9.53 175.01 10.91 171.88 12.3 167.53 12.3ZM168.23-7L168.23-7Q165.48-7 163.27-8.1 161.06-9.2 159.77-11.18 158.48-13.15 158.48-15.75L158.48-15.75Q158.48-18.38 159.77-20.35 161.06-22.33 163.27-23.41 165.48-24.5 168.23-24.5L168.23-24.5Q170.91-24.5 173.1-23.41 175.28-22.33 176.58-20.35 177.88-18.38 177.88-15.75L177.88-15.75Q177.88-13.15 176.58-11.18 175.28-9.2 173.1-8.1 170.91-7 168.23-7ZM168.23-9.8L168.23-9.8Q170.98-9.8 172.51-11.5 174.03-13.2 174.03-15.75L174.03-15.75Q174.03-18.38 172.51-20.01 170.98-21.65 168.23-21.65L168.23-21.65Q165.51-21.65 163.95-20.01 162.38-18.38 162.38-15.75L162.38-15.75Q162.38-13.2 163.95-11.5 165.51-9.8 168.23-9.8ZM176.08-20.7L176.08-20.7 174.23-21.45Q174.23-23.55 175.06-25.14 175.88-26.73 177.41-27.61 178.93-28.5 181.03-28.5L181.03-28.5 180.73-24.65Q178.48-24.65 177.28-23.69 176.08-22.73 176.08-20.7ZM207.83 0.6L207.83 0.6Q204.6 0.6 202.09-0.83 199.58-2.25 198.13-5.05 196.68-7.85 196.68-11.95L196.68-11.95Q196.68-16.07 198.13-18.86 199.58-21.65 202.09-23.08 204.6-24.5 207.83-24.5L207.83-24.5Q211.03-24.5 213.54-23.08 216.05-21.65 217.49-18.86 218.93-16.07 218.93-11.95L218.93-11.95Q218.93-7.85 217.49-5.05 216.05-2.25 213.54-0.83 211.03 0.6 207.83 0.6ZM207.73-2.8L207.73-2.8Q210.05-2.8 211.68-3.91 213.3-5.03 214.14-7.08 214.98-9.13 214.98-11.95L214.98-11.95Q214.98-16.23 213.2-18.69 211.43-21.15 207.93-21.15L207.93-21.15Q205.58-21.15 203.97-20.04 202.35-18.93 201.52-16.86 200.68-14.8 200.68-11.95L200.68-11.95Q200.68-7.73 202.47-5.26 204.25-2.8 207.73-2.8ZM231.7 0L227.8 0 227.8-27.6Q227.8-29.98 228.71-31.49 229.63-33 231.16-33.73 232.7-34.45 234.6-34.45L234.6-34.45Q235.63-34.45 236.69-34.3 237.75-34.15 238.8-33.85L238.8-33.85 238.05-30.75Q237.3-31.05 236.56-31.2 235.83-31.35 235.15-31.35L235.15-31.35Q234.35-31.35 233.55-31.05 232.75-30.75 232.23-29.93 231.7-29.1 231.7-27.55L231.7-27.55 231.7 0ZM236.65-21.2L223.9-21.2 223.9-23.9 236.65-23.9 236.65-21.2ZM261.87-28.05L250.75-28.05 250.75-31.4 275.2-31.4 275.2-28.05 264.02-28.05 264.9-28.95 264.9 0 261 0 261-28.95 261.87-28.05ZM294.37 0L290.97 0 290.47-5.25 290.47-15.5Q290.47-18.73 289.09-20.14 287.72-21.55 284.97-21.55L284.97-21.55Q283.42-21.55 282.16-21.1 280.89-20.65 280.16-19.71 279.42-18.78 279.42-17.3L279.42-17.3 275.07-17.3Q275.07-19.9 276.34-21.49 277.62-23.08 279.86-23.79 282.09-24.5 284.97-24.5L284.97-24.5Q287.72-24.5 289.84-23.58 291.97-22.65 293.17-20.64 294.37-18.63 294.37-15.4L294.37-15.4 294.37 0ZM282.82 0.6L282.82 0.6Q279.87 0.6 277.94-0.45 276.02-1.5 275.07-3.18 274.12-4.85 274.12-6.7L274.12-6.7Q274.12-9.13 275.33-10.65 276.54-12.18 278.64-12.89 280.74-13.6 283.37-13.6L283.37-13.6Q285.24-13.6 287.13-13.23 289.02-12.85 290.82-12.2L290.82-12.2 290.82-9.75Q289.32-10.35 287.43-10.7 285.54-11.05 283.97-11.05L283.97-11.05Q281.57-11.05 279.92-10.06 278.27-9.08 278.27-6.7L278.27-6.7Q278.27-4.95 279.53-3.7 280.79-2.45 283.57-2.45L283.57-2.45Q285.52-2.45 287.08-3.36 288.64-4.28 289.56-5.65 290.47-7.03 290.47-8.4L290.47-8.4 291.42-8.4Q291.42-6 290.38-3.95 289.34-1.9 287.42-0.65 285.49 0.6 282.82 0.6ZM305.89-29.55L305.89-29.55Q304.69-29.55 303.99-30.24 303.29-30.93 303.29-32.05L303.29-32.05Q303.29-33.15 303.99-33.8 304.69-34.45 305.89-34.45L305.89-34.45Q307.09-34.45 307.79-33.8 308.49-33.15 308.49-32.05L308.49-32.05Q308.49-30.93 307.79-30.24 307.09-29.55 305.89-29.55ZM307.84 0L303.94 0 303.94-23.95 307.84-23.95 307.84 0ZM322.49 0L318.59 0 318.59-34.1 322.49-34.1 322.49 0ZM336.33 0L328.43-23.9 332.48-23.9 338.58-3.95 338.08-3.95 344.03-22.75 347.28-22.75 353.18-3.9 352.73-3.9 358.83-23.9 362.73-23.9 354.88 0 351.08 0 345.28-17.65 345.88-17.65 340.13 0 336.33 0ZM371.01-29.55L371.01-29.55Q369.81-29.55 369.11-30.24 368.41-30.93 368.41-32.05L368.41-32.05Q368.41-33.15 369.11-33.8 369.81-34.45 371.01-34.45L371.01-34.45Q372.21-34.45 372.91-33.8 373.61-33.15 373.61-32.05L373.61-32.05Q373.61-30.93 372.91-30.24 372.21-29.55 371.01-29.55ZM372.96 0L369.06 0 369.06-23.95 372.96-23.95 372.96 0ZM404.55 0L400.7 0 400.7-14.05Q400.7-17.48 399.07-19.26 397.43-21.05 394.6-21.05L394.6-21.05Q392.45-21.05 390.88-19.88 389.3-18.7 388.45-16.51 387.6-14.33 387.6-11.3L387.6-11.3 386.1-11.3Q386.1-15.48 387.2-18.43 388.3-21.38 390.42-22.94 392.53-24.5 395.55-24.5L395.55-24.5Q398.38-24.5 400.39-23.24 402.4-21.98 403.48-19.63 404.55-17.28 404.55-14.05L404.55-14.05 404.55 0ZM387.6 0L383.7 0 383.7-23.9 387.05-23.9 387.6-18.4 387.6 0ZM422.43 0.6L422.43 0.6Q419.53 0.6 417.1-0.96 414.68-2.53 413.23-5.36 411.78-8.2 411.78-12.05L411.78-12.05Q411.78-15.88 413.2-18.68 414.63-21.48 416.99-22.99 419.35-24.5 422.18-24.5L422.18-24.5Q424.8-24.5 426.79-23.23 428.78-21.95 429.88-19.55 430.98-17.15 430.98-13.75L430.98-13.75 429.48-13.75Q429.48-16.13 428.54-17.75 427.6-19.38 426.1-20.21 424.6-21.05 422.88-21.05L422.88-21.05Q420.93-21.05 419.31-19.96 417.7-18.88 416.74-16.86 415.78-14.85 415.78-12.05L415.78-12.05Q415.78-9.2 416.74-7.15 417.7-5.1 419.31-4 420.93-2.9 422.88-2.9L422.88-2.9Q424.5-2.9 426.01-3.75 427.53-4.6 428.5-6.24 429.48-7.88 429.48-10.2L429.48-10.2 430.98-10.2Q430.98-6.73 429.84-4.31 428.7-1.9 426.76-0.65 424.83 0.6 422.43 0.6ZM433.38 0L430.13 0 429.48-5.6 429.48-34.1 433.38-34.1 433.38 0ZM466.27 0.6L466.27 0.6Q462.12 0.6 459.12-1.49 456.12-3.58 454.5-7.29 452.87-11 452.87-15.9L452.87-15.9Q452.87-21.13 454.63-24.7 456.4-28.28 459.44-30.11 462.47-31.95 466.27-31.95L466.27-31.95Q471.3-31.95 474.36-29.44 477.42-26.93 478.57-22.9L478.57-22.9 474.37-22.05Q473.4-24.98 471.26-26.71 469.12-28.45 466.27-28.45L466.27-28.45Q463.8-28.45 461.71-27.04 459.62-25.63 458.35-22.83 457.07-20.03 457.07-15.9L457.07-15.9Q457.07-12.15 458.08-9.22 459.1-6.3 461.13-4.63 463.17-2.95 466.27-2.95L466.27-2.95Q470-2.95 472.19-4.95 474.37-6.95 474.37-10.2L474.37-10.2 478.62-10.2Q478.62-6.83 477.07-4.41 475.52-2 472.74-0.7 469.95 0.6 466.27 0.6ZM496.07 0.6L496.07 0.6Q492.92 0.6 490.29-0.54 487.67-1.68 486.07-3.9 484.47-6.13 484.42-9.4L484.42-9.4 488.22-9.4Q488.22-7.2 489.29-5.79 490.37-4.38 492.14-3.69 493.92-3 496.02-3L496.02-3Q498.29-3 499.97-3.73 501.64-4.45 502.56-5.64 503.47-6.83 503.47-8.25L503.47-8.25Q503.47-10.25 502.24-11.49 501.02-12.73 498.62-13.5L498.62-13.5 493.07-15.45Q489.17-16.85 487.17-18.65 485.17-20.45 485.17-23.7L485.17-23.7Q485.17-27.35 487.98-29.65 490.79-31.95 495.97-31.95L495.97-31.95Q500.77-31.95 503.47-29.74 506.17-27.53 506.57-23.8L506.57-23.8 502.72-23.8Q502.34-25.98 500.68-27.19 499.02-28.4 495.97-28.4L495.97-28.4Q492.87-28.4 491.14-27.03 489.42-25.65 489.42-23.55L489.42-23.55Q489.42-21.83 490.51-20.81 491.59-19.8 493.92-19L493.92-19 500.42-16.75Q503.79-15.63 505.76-13.6 507.72-11.58 507.72-8.35L507.72-8.35Q507.72-5.85 506.38-3.83 505.04-1.8 502.44-0.6 499.84 0.6 496.07 0.6ZM526.29 0.6L526.29 0.6Q523.14 0.6 520.52-0.54 517.89-1.68 516.29-3.9 514.69-6.13 514.64-9.4L514.64-9.4 518.44-9.4Q518.44-7.2 519.52-5.79 520.59-4.38 522.37-3.69 524.14-3 526.24-3L526.24-3Q528.52-3 530.19-3.73 531.87-4.45 532.78-5.64 533.69-6.83 533.69-8.25L533.69-8.25Q533.69-10.25 532.47-11.49 531.24-12.73 528.84-13.5L528.84-13.5 523.29-15.45Q519.39-16.85 517.39-18.65 515.39-20.45 515.39-23.7L515.39-23.7Q515.39-27.35 518.21-29.65 521.02-31.95 526.19-31.95L526.19-31.95Q530.99-31.95 533.69-29.74 536.39-27.53 536.79-23.8L536.79-23.8 532.94-23.8Q532.57-25.98 530.9-27.19 529.24-28.4 526.19-28.4L526.19-28.4Q523.09-28.4 521.37-27.03 519.64-25.65 519.64-23.55L519.64-23.55Q519.64-21.83 520.73-20.81 521.82-19.8 524.14-19L524.14-19 530.64-16.75Q534.02-15.63 535.98-13.6 537.94-11.58 537.94-8.35L537.94-8.35Q537.94-5.85 536.61-3.83 535.27-1.8 532.67-0.6 530.07 0.6 526.29 0.6ZM576.54 0L573.14 0 572.64-5.25 572.64-15.5Q572.64-18.73 571.26-20.14 569.89-21.55 567.14-21.55L567.14-21.55Q565.59-21.55 564.32-21.1 563.06-20.65 562.32-19.71 561.59-18.78 561.59-17.3L561.59-17.3 557.24-17.3Q557.24-19.9 558.51-21.49 559.79-23.08 562.02-23.79 564.26-24.5 567.14-24.5L567.14-24.5Q569.89-24.5 572.01-23.58 574.14-22.65 575.34-20.64 576.54-18.63 576.54-15.4L576.54-15.4 576.54 0ZM564.99 0.6L564.99 0.6Q562.04 0.6 560.11-0.45 558.19-1.5 557.24-3.18 556.29-4.85 556.29-6.7L556.29-6.7Q556.29-9.13 557.5-10.65 558.71-12.18 560.81-12.89 562.91-13.6 565.54-13.6L565.54-13.6Q567.41-13.6 569.3-13.23 571.19-12.85 572.99-12.2L572.99-12.2 572.99-9.75Q571.49-10.35 569.6-10.7 567.71-11.05 566.14-11.05L566.14-11.05Q563.74-11.05 562.09-10.06 560.44-9.08 560.44-6.7L560.44-6.7Q560.44-4.95 561.7-3.7 562.96-2.45 565.74-2.45L565.74-2.45Q567.69-2.45 569.25-3.36 570.81-4.28 571.72-5.65 572.64-7.03 572.64-8.4L572.64-8.4 573.59-8.4Q573.59-6 572.55-3.95 571.51-1.9 569.59-0.65 567.66 0.6 564.99 0.6ZM606.71 0L602.86 0 602.86-14.05Q602.86-17.48 601.22-19.26 599.58-21.05 596.76-21.05L596.76-21.05Q594.61-21.05 593.03-19.88 591.46-18.7 590.61-16.51 589.76-14.33 589.76-11.3L589.76-11.3 588.26-11.3Q588.26-15.48 589.36-18.43 590.46-21.38 592.57-22.94 594.68-24.5 597.71-24.5L597.71-24.5Q600.53-24.5 602.55-23.24 604.56-21.98 605.63-19.63 606.71-17.28 606.71-14.05L606.71-14.05 606.71 0ZM589.76 0L585.86 0 585.86-23.9 589.21-23.9 589.76-18.4 589.76 0ZM624.58 0.6L624.58 0.6Q621.68 0.6 619.26-0.96 616.83-2.53 615.38-5.36 613.93-8.2 613.93-12.05L613.93-12.05Q613.93-15.88 615.36-18.68 616.78-21.48 619.14-22.99 621.51-24.5 624.33-24.5L624.33-24.5Q626.96-24.5 628.94-23.23 630.93-21.95 632.03-19.55 633.13-17.15 633.13-13.75L633.13-13.75 631.63-13.75Q631.63-16.13 630.69-17.75 629.76-19.38 628.26-20.21 626.76-21.05 625.03-21.05L625.03-21.05Q623.08-21.05 621.47-19.96 619.86-18.88 618.89-16.86 617.93-14.85 617.93-12.05L617.93-12.05Q617.93-9.2 618.89-7.15 619.86-5.1 621.47-4 623.08-2.9 625.03-2.9L625.03-2.9Q626.66-2.9 628.17-3.75 629.68-4.6 630.66-6.24 631.63-7.88 631.63-10.2L631.63-10.2 633.13-10.2Q633.13-6.73 631.99-4.31 630.86-1.9 628.92-0.65 626.98 0.6 624.58 0.6ZM635.53 0L632.28 0 631.63-5.6 631.63-34.1 635.53-34.1 635.53 0ZM657.53 0L657.53-31.4 663.13-31.4 673.93-9.7 673.53-9.7 684.33-31.4 689.78-31.4 689.78 0 685.83 0 685.83-27.35 686.53-27.35 675.03-3.95 672.43-3.95 660.98-27.2 661.43-27.2 661.43 0 657.53 0ZM708.52 0.6L708.52 0.6Q705.3 0.6 702.79-0.83 700.27-2.25 698.82-5.05 697.37-7.85 697.37-11.95L697.37-11.95Q697.37-16.07 698.82-18.86 700.27-21.65 702.79-23.08 705.3-24.5 708.52-24.5L708.52-24.5Q711.72-24.5 714.24-23.08 716.75-21.65 718.19-18.86 719.62-16.07 719.62-11.95L719.62-11.95Q719.62-7.85 718.19-5.05 716.75-2.25 714.24-0.83 711.72 0.6 708.52 0.6ZM708.42-2.8L708.42-2.8Q710.75-2.8 712.37-3.91 714-5.03 714.84-7.08 715.67-9.13 715.67-11.95L715.67-11.95Q715.67-16.23 713.9-18.69 712.12-21.15 708.62-21.15L708.62-21.15Q706.27-21.15 704.66-20.04 703.05-18.93 702.21-16.86 701.37-14.8 701.37-11.95L701.37-11.95Q701.37-7.73 703.16-5.26 704.95-2.8 708.42-2.8ZM738.15 0.6L738.15 0.6Q735.75 0.6 733.81-0.65 731.87-1.9 730.73-4.31 729.6-6.73 729.6-10.2L729.6-10.2 731.1-10.2Q731.1-7.88 732.06-6.24 733.02-4.6 734.55-3.75 736.07-2.9 737.75-2.9L737.75-2.9Q739.67-2.9 741.27-4 742.87-5.1 743.83-7.15 744.8-9.2 744.8-12.05L744.8-12.05Q744.8-14.85 743.85-16.86 742.9-18.88 741.28-19.96 739.67-21.05 737.7-21.05L737.7-21.05Q736-21.05 734.48-20.21 732.97-19.38 732.03-17.75 731.1-16.13 731.1-13.75L731.1-13.75 729.6-13.75Q729.6-17.15 730.71-19.55 731.82-21.95 733.8-23.23 735.77-24.5 738.4-24.5L738.4-24.5Q741.22-24.5 743.58-22.99 745.95-21.48 747.37-18.68 748.8-15.88 748.8-12.05L748.8-12.05Q748.8-8.2 747.35-5.36 745.9-2.53 743.47-0.96 741.05 0.6 738.15 0.6ZM729.95 0L727.2 0 727.2-34.1 731.1-34.1 731.1-5.6 729.95 0ZM759.02-29.55L759.02-29.55Q757.82-29.55 757.12-30.24 756.42-30.93 756.42-32.05L756.42-32.05Q756.42-33.15 757.12-33.8 757.82-34.45 759.02-34.45L759.02-34.45Q760.22-34.45 760.92-33.8 761.62-33.15 761.62-32.05L761.62-32.05Q761.62-30.93 760.92-30.24 760.22-29.55 759.02-29.55ZM760.97 0L757.07 0 757.07-23.95 760.97-23.95 760.97 0ZM775.62 0L771.72 0 771.72-34.1 775.62-34.1 775.62 0ZM794.01 0.6L794.01 0.6Q790.91 0.6 788.48-0.99 786.04-2.58 784.63-5.4 783.21-8.22 783.21-11.9L783.21-11.9Q783.21-15.83 784.61-18.65 786.01-21.48 788.45-22.99 790.89-24.5 794.01-24.5L794.01-24.5Q796.74-24.5 798.66-23.4 800.59-22.3 801.76-20.43 802.94-18.55 803.4-16.19 803.86-13.83 803.66-11.3L803.66-11.3 786.36-11.3 786.36-13.7 801.09-13.7 799.94-12.95Q800.01-14.43 799.78-15.9 799.54-17.38 798.89-18.61 798.24-19.85 797.06-20.6 795.89-21.35 794.06-21.35L794.06-21.35Q791.76-21.35 790.21-20.18 788.66-19 787.89-17.09 787.11-15.18 787.11-12.95L787.11-12.95 787.11-11.35Q787.11-8.85 787.88-6.88 788.64-4.9 790.16-3.75 791.69-2.6 794.01-2.6L794.01-2.6Q796.34-2.6 797.84-3.73 799.34-4.85 799.66-7.05L799.66-7.05 803.71-7.05Q803.34-4.67 802.01-2.96 800.69-1.25 798.64-0.33 796.59 0.6 794.01 0.6ZM822.56-11.35L822.56-31.4 826.46-31.4 826.46-11.35Q826.46-6.93 828.68-4.96 830.91-3 834.51-3L834.51-3Q838.08-3 840.3-4.96 842.51-6.93 842.51-11.35L842.51-11.35 842.51-31.4 846.41-31.4 846.41-11.35Q846.41-7.4 844.95-4.74 843.48-2.08 840.81-0.74 838.13 0.6 834.51 0.6L834.51 0.6Q830.88 0.6 828.2-0.74 825.51-2.08 824.03-4.74 822.56-7.4 822.56-11.35L822.56-11.35ZM859.81 0L855.91 0 855.91-31.4 859.81-31.4 859.81 0Z" opacity="1" transform="matrix(1,0,0,1,0,0)" fill="#dcdcdc" class="undefined-text-1" data-fill-palette-color="secondary" id="text-1"></path></svg></g></svg></g></svg></g></svg></g><g transform="matrix(1,0,0,1,145.9476083432039,0)"><svg viewBox="0 0 105.60238331359217 106.65563430228846" height="106.65563430228846" width="105.60238331359217"><g><svg xmlns="http://www.w3.org/2000/svg" xmlns:xlink="http://www.w3.org/1999/xlink" version="1.1" x="0" y="0" viewBox="0.6969999999999992 0.22899999999999998 98.25800000000001 99.238" enable-background="new 0 0 100 100" xml:space="preserve" height="106.65563430228846" width="105.60238331359217" class="icon-icon-0" data-fill-palette-color="accent" id="icon-0"><g fill="#dcdcdc" data-fill-palette-color="accent"><path fill="#dcdcdc" d="M82.079 65.458c-1.855 3.838-4.363 7.286-7.454 10.244l-1.361 1.307L89.1 78.393l-6.2-14.63L82.079 65.458z" data-fill-palette-color="accent"></path><path fill="#dcdcdc" d="M54.707 14.348c4.233 0.575 8.28 1.881 12.028 3.889l1.655 0.888L64.832 3.67 52.84 14.096 54.707 14.348z" data-fill-palette-color="accent"></path><path fill="#dcdcdc" d="M44.944 14.348l1.868-0.254L34.824 3.67l-3.567 15.455 1.659-0.888C36.665 16.231 40.71 14.922 44.944 14.348z" data-fill-palette-color="accent"></path><path fill="#dcdcdc" d="M44.944 85.349c-4.234-0.574-8.279-1.884-12.029-3.889l-1.659-0.886 3.567 15.453 11.988-10.424L44.944 85.349z" data-fill-palette-color="accent"></path><path fill="#dcdcdc" d="M14.865 41.674L1.28 49.849l13.584 8.173-0.333-1.852c-0.377-2.089-0.567-4.214-0.567-6.321s0.19-4.235 0.567-6.321L14.865 41.674z" data-fill-palette-color="accent"></path><path fill="#dcdcdc" d="M54.706 85.349l-1.867 0.255 11.987 10.425 3.568-15.454-1.659 0.886C62.992 83.465 58.94 84.774 54.706 85.349z" data-fill-palette-color="accent"></path><path fill="#dcdcdc" d="M17.569 34.244c1.858-3.841 4.367-7.288 7.455-10.25l1.362-1.304-15.834-1.38 6.197 14.629L17.569 34.244z" data-fill-palette-color="accent"></path><path fill="#dcdcdc" d="M25.027 75.701c-3.091-2.959-5.6-6.405-7.458-10.246l-0.821-1.697-6.197 14.628 15.837-1.382L25.027 75.701z" data-fill-palette-color="accent"></path><path fill="#dcdcdc" d="M84.783 58.028l13.588-8.18-13.585-8.174 0.334 1.855c0.377 2.091 0.566 4.215 0.566 6.319 0 2.105-0.189 4.232-0.568 6.322L84.783 58.028z" data-fill-palette-color="accent"></path><path fill="#dcdcdc" d="M74.628 23.995c3.088 2.961 5.596 6.409 7.455 10.25l0.82 1.695L89.1 21.311l-15.832 1.381L74.628 23.995z" data-fill-palette-color="accent"></path><circle fill="#dcdcdc" cx="49.825" cy="49.848" r="30" data-fill-palette-color="accent"></circle><path fill="#dcdcdc" d="M58.44 0.99c-2.8-0.49-5.676-0.761-8.616-0.761-2.939 0-5.813 0.271-8.612 0.76l8.613 7.491L58.44 0.99z" data-fill-palette-color="accent"></path><path fill="#dcdcdc" d="M28.085 5.24c-5.229 2.553-9.935 6.003-13.935 10.142l11.364 0.992L28.085 5.24z" data-fill-palette-color="accent"></path><path fill="#dcdcdc" d="M85.502 15.383c-3.998-4.138-8.704-7.586-13.931-10.14l2.566 11.131L85.502 15.383z" data-fill-palette-color="accent"></path><path fill="#dcdcdc" d="M93.633 73.153c2.673-5.015 4.507-10.542 5.322-16.397l-9.776 5.883L93.633 73.153z" data-fill-palette-color="accent"></path><path fill="#dcdcdc" d="M6.018 26.546C3.345 31.561 1.513 37.087 0.697 42.94l9.774-5.881L6.018 26.546z" data-fill-palette-color="accent"></path><path fill="#dcdcdc" d="M93.633 26.545L89.18 37.062l9.775 5.879C98.14 37.087 96.306 31.56 93.633 26.545z" data-fill-palette-color="accent"></path><path fill="#dcdcdc" d="M14.148 84.312c4 4.14 8.707 7.589 13.935 10.143l-2.569-11.134L14.148 84.312z" data-fill-palette-color="accent"></path><path fill="#dcdcdc" d="M41.214 98.705c2.798 0.492 5.672 0.762 8.611 0.762 2.939 0 5.814-0.271 8.613-0.762l-8.612-7.486L41.214 98.705z" data-fill-palette-color="accent"></path><path fill="#dcdcdc" d="M71.565 94.456c5.228-2.553 9.933-6.001 13.932-10.139l-11.361-0.994L71.565 94.456z" data-fill-palette-color="accent"></path><path fill="#dcdcdc" d="M6.018 73.15l4.455-10.513-9.776-5.882C1.513 62.609 3.345 68.137 6.018 73.15z" data-fill-palette-color="accent"></path></g></svg></g></svg></g><g></g></svg></g><defs></defs></svg><rect width="395.52" height="212.1272936138463" fill="none" stroke="none" visibility="hidden"></rect></g></svg></g></svg>